<?xml version="1.0" standalone="no"?>
<!DOCTYPE svg PUBLIC "-//W3C//DTD SVG 20010904//EN"
 "http://www.w3.org/TR/2001/REC-SVG-20010904/DTD/svg10.dtd">
<svg version="1.0" xmlns="http://www.w3.org/2000/svg"
 width="535.000000pt" height="618.000000pt" viewBox="0 0 535.000000 618.000000"
 preserveAspectRatio="xMidYMid meet">

<g transform="translate(0.000000,618.000000) scale(0.100000,-0.100000)"
fill="#000000" stroke="none">
<path d="M1338 5407 l-1338 -772 0 -1545 0 -1545 1336 -770 c734 -424 1340
-769 1345 -767 6 1 609 348 1340 770 l1329 767 0 1545 0 1545 -1282 740 c-704
407 -1306 754 -1337 772 l-56 31 -1337 -771z m2582 -235 l1175 -679 0 -1403 0
-1403 -1209 -698 c-1168 -674 -1210 -697 -1235 -684 -14 8 -559 322 -1211 698
l-1185 685 0 1402 0 1402 1209 698 1210 699 35 -19 c20 -11 565 -325 1211
-698z"/>
<path d="M2466 5418 c11 -195 25 -395 29 -420 4 -28 -6 -60 -52 -158 -14 -30
-31 -71 -39 -90 -38 -103 -102 -235 -115 -238 -8 -1 -27 10 -44 26 -51 47
-245 182 -263 182 -12 0 -12 4 -18 -305 -6 -293 -8 -309 -58 -416 -38 -81 -96
-223 -96 -235 0 -5 -5 -15 -12 -22 -8 -8 -35 1 -112 41 -56 29 -126 63 -156
76 -30 13 -70 30 -88 38 -24 12 -36 13 -44 5 -7 -7 -10 -85 -9 -234 l2 -223
46 -140 c25 -77 51 -151 58 -165 23 -46 14 -50 -131 -50 -74 0 -134 -2 -134
-4 0 -2 13 -43 29 -92 24 -74 35 -114 44 -154 0 -3 12 -41 25 -85 13 -44 31
-106 40 -139 17 -57 19 -60 114 -128 53 -38 130 -85 170 -104 78 -39 294 -164
343 -200 48 -34 126 -75 134 -69 12 7 29 80 36 160 7 71 2 92 -55 220 -5 11
-27 63 -48 115 -22 52 -57 128 -77 168 -40 80 -39 70 -9 227 3 17 9 50 14 75
5 25 18 83 30 130 11 47 23 102 27 123 5 30 15 44 57 74 65 48 104 73 115 73
12 0 36 -138 62 -360 6 -52 14 -101 19 -109 9 -16 45 34 105 144 21 39 51 89
66 112 46 66 49 84 54 281 2 103 7 231 11 284 7 114 14 125 143 262 42 44 92
100 110 124 18 24 38 41 44 39 7 -2 11 -94 11 -288 l1 -284 52 -70 c29 -39 77
-107 108 -151 l57 -81 -11 -84 c-6 -46 -15 -111 -20 -144 -14 -88 -51 -344
-51 -352 0 -7 138 3 162 12 17 7 59 68 101 145 11 19 28 44 38 56 10 11 19 23
19 27 0 3 13 27 29 52 20 31 56 64 117 105 49 33 93 59 98 57 6 -2 12 -98 14
-238 3 -261 2 -268 -64 -355 -38 -49 -115 -166 -128 -194 -14 -31 -34 -61 -53
-83 -21 -24 -153 -245 -156 -262 -1 -5 5 -9 13 -8 38 5 181 43 235 63 33 12
67 23 75 25 8 1 42 13 75 24 33 12 111 35 173 51 63 16 115 30 116 32 20 27
131 187 158 228 20 30 55 80 77 110 98 132 94 123 103 264 4 72 12 153 17 180
6 28 13 92 16 141 5 86 14 178 36 345 11 91 12 160 1 160 -9 0 -239 -141 -356
-218 -43 -28 -82 -49 -87 -46 -15 9 -10 55 17 149 14 50 30 110 35 135 5 25
13 62 19 83 25 93 30 115 36 157 3 25 6 52 7 60 1 8 -18 76 -42 150 -83 258
-68 231 -136 257 -72 27 -101 41 -137 65 -14 10 -30 18 -36 18 -5 0 -12 -73
-16 -166 -4 -91 -11 -175 -15 -187 -5 -12 -22 -29 -37 -37 -52 -26 -82 -52
-114 -96 -17 -24 -35 -44 -39 -44 -11 0 -71 199 -151 505 -10 39 -28 103 -39
144 -12 41 -21 82 -21 90 -1 20 -223 365 -278 431 -16 19 -47 62 -69 95 -32
47 -53 66 -99 90 -33 16 -95 51 -138 77 -44 27 -83 48 -87 48 -5 0 -6 -37 -3
-82z"/>
<path d="M2805 2301 c-6 -4 -32 -16 -60 -26 -27 -10 -54 -22 -60 -25 -5 -4
-60 -25 -121 -46 l-111 -38 -11 -46 c-6 -25 -16 -71 -22 -102 -10 -51 -15 -59
-38 -63 -15 -3 -65 -14 -112 -25 -47 -10 -105 -22 -130 -25 -25 -3 -54 -10
-65 -14 -40 -17 -132 -41 -155 -41 -22 0 -22 2 -16 68 l7 67 -68 27 c-37 14
-79 29 -93 32 -14 3 -65 14 -115 25 -49 11 -103 23 -120 26 -16 3 -48 10 -70
16 -58 15 -156 30 -165 24 -4 -3 -20 -35 -34 -71 -15 -37 -43 -100 -62 -141
l-36 -75 103 -104 c97 -97 107 -104 144 -104 22 0 63 7 90 15 79 24 186 45
233 45 52 0 53 -11 11 -95 -49 -95 -80 -185 -66 -190 7 -3 57 -16 112 -30 55
-14 125 -33 155 -41 63 -17 147 -33 205 -40 37 -4 46 0 110 52 39 31 95 80
125 109 88 83 91 83 153 33 29 -24 78 -65 110 -92 l57 -50 0 -138 c0 -103 3
-138 13 -139 6 0 138 -1 292 -1 251 0 280 2 292 17 13 19 12 240 -2 305 -12
55 -39 75 -169 125 -66 25 -148 57 -181 70 -33 13 -68 26 -78 29 -28 9 -11 24
36 30 23 4 70 11 104 17 54 10 68 8 125 -11 34 -13 68 -26 73 -30 6 -3 33 -15
60 -25 48 -18 81 -34 192 -97 46 -26 180 -78 200 -78 13 0 67 90 84 139 15 44
17 46 60 49 40 3 391 -14 420 -20 18 -4 29 55 31 162 2 85 -1 101 -26 155 -15
33 -41 95 -57 137 -17 43 -34 80 -38 82 -4 3 -36 -1 -72 -8 -35 -7 -110 -21
-166 -32 -95 -17 -103 -20 -114 -46 -6 -15 -24 -48 -40 -72 l-28 -45 -63 21
c-35 11 -71 27 -80 36 -21 18 -69 12 -213 -25 -94 -24 -133 -32 -246 -49 -43
-6 -47 -5 -54 17 -11 39 -77 170 -114 229 -19 30 -45 76 -58 103 -22 46 -46
59 -68 38z"/>
</g>
</svg>
