<?xml version="1.0" standalone="no"?>
<!DOCTYPE svg PUBLIC "-//W3C//DTD SVG 20010904//EN"
 "http://www.w3.org/TR/2001/REC-SVG-20010904/DTD/svg10.dtd">
<svg version="1.0" xmlns="http://www.w3.org/2000/svg"
 width="535.000000pt" height="618.000000pt" viewBox="0 0 535.000000 618.000000"
 preserveAspectRatio="xMidYMid meet">

<g transform="translate(0.000000,618.000000) scale(0.100000,-0.100000)"
fill="#000000" stroke="none">
<path d="M1338 5407 l-1338 -772 0 -1545 0 -1545 1336 -770 c734 -424 1340
-769 1345 -767 6 1 609 348 1340 770 l1329 767 0 1545 0 1545 -1282 740 c-704
407 -1306 754 -1337 772 l-56 31 -1337 -771z m2582 -235 l1175 -679 0 -1403 0
-1403 -1209 -698 c-1168 -674 -1210 -697 -1235 -684 -14 8 -559 322 -1211 698
l-1185 685 0 1402 0 1402 1209 698 1210 699 35 -19 c20 -11 565 -325 1211
-698z"/>
<path d="M2430 5149 c-166 -20 -227 -28 -250 -34 -14 -3 -59 -10 -100 -15 -41
-5 -102 -14 -135 -19 -33 -5 -107 -17 -165 -26 -100 -15 -191 -45 -420 -137
-41 -17 -86 -34 -100 -39 -14 -4 -59 -22 -100 -39 -41 -17 -88 -36 -105 -43
-16 -7 -65 -30 -109 -52 -86 -43 -95 -54 -157 -185 -72 -151 -89 -193 -89
-215 0 -55 152 -353 188 -367 9 -4 58 -7 107 -8 103 -3 147 -10 152 -26 2 -6
-4 -14 -14 -16 -10 -3 -49 -39 -86 -81 l-68 -75 77 -139 c42 -76 93 -167 112
-203 19 -36 50 -90 68 -121 19 -31 34 -61 34 -66 0 -13 43 -53 57 -53 6 0 42
-13 81 -30 38 -16 91 -37 118 -46 40 -13 177 -65 302 -115 12 -5 22 -13 22
-18 0 -8 -165 -111 -179 -111 -4 0 -17 -9 -29 -20 l-21 -20 43 -87 c23 -49 59
-126 80 -173 21 -47 41 -92 45 -100 12 -23 32 -31 338 -140 104 -36 153 -60
153 -72 0 -6 -42 -58 -93 -116 -51 -59 -102 -123 -114 -143 l-20 -36 22 -74
c44 -143 65 -228 65 -261 0 -24 14 -52 52 -103 100 -134 143 -194 193 -266 28
-39 54 -77 59 -84 6 -8 -3 -49 -24 -114 -30 -95 -31 -103 -16 -124 9 -12 24
-33 33 -47 27 -38 153 -208 203 -271 43 -56 70 -67 70 -28 0 11 11 61 24 112
14 50 29 125 35 164 9 67 15 80 78 169 102 144 97 127 69 246 -14 57 -32 139
-41 183 -15 75 -15 80 2 92 19 14 114 92 192 158 26 22 80 66 120 99 l72 58
-28 19 c-15 10 -39 26 -51 37 l-24 18 24 16 c12 8 91 44 173 79 156 66 200 96
251 171 16 23 37 52 46 63 9 11 48 63 87 115 l71 95 -91 91 c-69 69 -87 93
-77 101 7 5 86 42 175 83 90 40 169 80 177 89 13 14 83 148 225 425 28 54 51
100 51 103 0 2 -56 31 -124 64 -112 54 -157 83 -145 93 2 2 51 28 109 58 95
49 149 80 205 116 11 6 30 16 42 22 12 5 34 29 49 52 15 24 40 62 56 85 15 23
28 44 28 48 0 4 14 27 30 52 17 24 37 58 46 76 9 18 36 61 59 97 24 36 44 74
46 85 4 29 -10 150 -26 221 -8 33 -17 95 -21 138 l-7 78 -43 28 c-23 14 -121
58 -216 97 -180 73 -541 216 -593 235 -16 6 -52 21 -80 33 -44 19 -80 24 -285
34 -129 7 -289 19 -355 27 -66 8 -131 14 -145 13 -14 -1 -52 1 -85 4 -33 3
-100 9 -150 12 -49 4 -108 8 -130 9 -22 2 -69 0 -105 -5z m289 -483 c10 -12 1
-20 -52 -45 -36 -17 -68 -31 -72 -31 -4 0 -40 -16 -81 -35 -40 -19 -76 -35
-79 -35 -8 0 -179 -82 -192 -92 -10 -8 -2 -30 32 -93 25 -45 45 -89 45 -99 0
-21 -50 -21 -151 -2 -41 8 -146 20 -234 26 -239 17 -217 9 -259 93 -20 40 -36
78 -36 84 0 9 107 50 150 58 3 0 25 6 50 12 102 25 189 44 255 53 39 6 124 22
190 36 66 14 147 29 180 35 90 15 156 27 195 38 48 12 46 13 59 -3z m518
-1054 c-10 -11 -32 -22 -50 -25 -18 -4 -72 -18 -122 -32 -49 -14 -98 -27 -108
-30 -10 -2 -62 -18 -115 -35 -53 -17 -122 -38 -152 -47 -30 -9 -64 -19 -75
-23 -101 -39 -166 -52 -215 -41 -25 5 -79 15 -120 21 -41 6 -120 21 -175 32
-55 11 -129 24 -165 28 -36 4 -102 15 -147 25 -80 17 -82 18 -103 60 -30 58
-21 69 49 61 31 -3 106 -10 166 -15 61 -6 151 -14 200 -20 187 -22 229 -24
343 -13 64 7 173 16 242 22 217 17 262 21 375 33 61 7 128 14 150 15 38 3 39
3 22 -16z m141 -837 c4 -4 -75 -77 -94 -88 -13 -8 -292 55 -324 73 -36 21 42
27 255 22 88 -3 161 -6 163 -7z"/>
</g>
</svg>
